<svg width="222" height="60" viewBox="0 0 222 60" fill="none" xmlns="http://www.w3.org/2000/svg">
<path d="M214.123 48.575C212.299 48.575 210.702 48.2044 209.333 47.463C207.983 46.7216 206.976 45.638 206.31 44.2123L210.702 42.0166C210.968 42.6059 211.377 43.0432 211.928 43.3283C212.498 43.5945 213.23 43.7275 214.123 43.7275C214.599 43.7275 215.017 43.68 215.378 43.5849C215.739 43.4899 216.024 43.3473 216.234 43.1572C216.462 42.9481 216.576 42.6915 216.576 42.3873C216.576 42.0071 216.452 41.722 216.205 41.5319C215.977 41.3418 215.644 41.1992 215.207 41.1042C214.789 40.9901 214.285 40.895 213.696 40.819C212.973 40.7049 212.203 40.5434 211.386 40.3343C210.569 40.1061 209.789 39.7735 209.048 39.3362C208.325 38.88 207.736 38.2812 207.28 37.5398C206.824 36.7794 206.596 35.8289 206.596 34.6883C206.596 33.5097 206.919 32.4546 207.565 31.5232C208.211 30.5727 209.095 29.8218 210.217 29.2705C211.339 28.7192 212.612 28.4436 214.038 28.4436C215.73 28.4436 217.241 28.8143 218.572 29.5556C219.921 30.297 220.919 31.3806 221.566 32.8063L217.175 35.002C216.908 34.5267 216.5 34.1275 215.948 33.8044C215.416 33.4622 214.703 33.2911 213.81 33.2911C213.392 33.2911 213.04 33.3386 212.755 33.4337C212.47 33.5097 212.251 33.6428 212.099 33.8329C211.947 34.004 211.871 34.2226 211.871 34.4887C211.871 34.8499 212.004 35.1445 212.27 35.3727C212.536 35.5818 212.897 35.7529 213.354 35.8859C213.829 36 214.38 36.1045 215.007 36.1996C215.73 36.3137 216.481 36.4847 217.26 36.7129C218.059 36.922 218.8 37.2546 219.484 37.7109C220.188 38.1481 220.758 38.7374 221.195 39.4788C221.632 40.2202 221.851 41.1707 221.851 42.3303C221.851 43.5089 221.499 44.5735 220.796 45.524C220.112 46.4554 219.18 47.1968 218.001 47.7481C216.842 48.2994 215.549 48.575 214.123 48.575Z" fill="white"/>
<path d="M197.298 28.8713V43.2713H205.795V48.1188H196.585C194.969 48.1188 193.8 47.7196 193.077 46.9212C192.374 46.1228 192.022 45.0487 192.022 43.699V28.8713H197.298Z" fill="white"/>
<path d="M181.122 48.461C178.099 48.461 175.884 47.6721 174.478 46.0943C173.071 44.4974 172.367 42.2733 172.367 39.4218V28.8713H177.643V39.2792C177.643 40.762 177.928 41.836 178.498 42.5014C179.087 43.1477 179.962 43.4709 181.122 43.4709C182.3 43.4709 183.175 43.1477 183.745 42.5014C184.334 41.836 184.629 40.762 184.629 39.2792V28.8713H189.904V39.4218C189.904 42.2733 189.191 44.4974 187.765 46.0943C186.34 47.6721 184.125 48.461 181.122 48.461Z" fill="white"/>
<path d="M159.167 48.1188H153.949V28.8713H162.018C163.539 28.8713 164.908 29.1089 166.124 29.5842C167.341 30.0594 168.301 30.7723 169.004 31.7228C169.708 32.6543 170.06 33.8329 170.06 35.2586C170.06 36.3232 169.822 37.2832 169.347 38.1386C168.89 38.975 168.244 39.6404 167.408 40.1346C166.59 40.6289 165.621 40.876 164.499 40.876L163.073 39.878C164.214 39.878 165.107 40.0111 165.754 40.2772C166.419 40.5434 166.97 40.9806 167.408 41.5889C167.845 42.1972 168.32 43.0242 168.833 44.0697L170.801 48.1188H165.069L163.273 44.4974C163.064 44.0602 162.826 43.7085 162.56 43.4424C162.294 43.1762 161.971 42.9861 161.591 42.8721C161.21 42.758 160.735 42.701 160.165 42.701H158.768V38.0246H162.018C162.532 38.0246 162.988 37.939 163.387 37.7679C163.786 37.5778 164.09 37.3212 164.3 36.998C164.528 36.6558 164.642 36.2566 164.642 35.8004C164.642 35.3061 164.528 34.9069 164.3 34.6028C164.09 34.2986 163.786 34.08 163.387 33.9469C163.007 33.7948 162.57 33.7188 162.075 33.7188H159.224L159.167 48.1188Z" fill="white"/>
<path d="M144.774 48.5465C143.33 48.5465 141.989 48.2899 140.754 47.7766C139.537 47.2634 138.463 46.5505 137.532 45.638C136.619 44.7255 135.906 43.661 135.393 42.4444C134.88 41.2277 134.623 39.916 134.623 38.5093C134.623 37.1026 134.88 35.7909 135.393 34.5743C135.906 33.3576 136.619 32.2931 137.532 31.3806C138.463 30.4681 139.537 29.7553 140.754 29.242C141.989 28.7287 143.33 28.4721 144.774 28.4721C145.915 28.4721 147.018 28.6717 148.082 29.0709C149.166 29.4511 150.135 30.0119 150.991 30.7533C151.846 31.4947 152.502 32.3976 152.958 33.4622L148.652 35.8574C148.253 35.1351 147.749 34.5553 147.141 34.118C146.533 33.6808 145.668 33.4622 144.546 33.4622C143.862 33.4622 143.244 33.5857 142.693 33.8329C142.142 34.08 141.666 34.4317 141.267 34.8879C140.868 35.3252 140.564 35.8574 140.355 36.4848C140.146 37.0931 140.041 37.7679 140.041 38.5093C140.041 39.2507 140.146 39.9351 140.355 40.5624C140.564 41.1707 140.858 41.703 141.239 42.1592C141.638 42.5964 142.113 42.9386 142.664 43.1857C143.235 43.4329 143.862 43.5564 144.546 43.5564C145.668 43.5564 146.542 43.3378 147.17 42.9006C147.797 42.4444 148.291 41.8646 148.652 41.1612L152.958 43.5564C152.502 44.602 151.846 45.505 150.991 46.2653C150.135 47.0067 149.166 47.577 148.082 47.9762C147.018 48.3564 145.915 48.5465 144.774 48.5465Z" fill="white"/>
<path d="M127.098 43.2713V48.1188H117.032C116.025 48.1188 115.198 47.9287 114.551 47.5485C113.924 47.1493 113.458 46.6455 113.154 46.0372C112.85 45.4289 112.698 44.7826 112.698 44.0982C112.698 43.4899 112.812 42.8911 113.04 42.3018C113.268 41.7125 113.601 41.1992 114.038 40.762L121.338 33.3766C121.3 33.4146 121.262 33.4527 121.224 33.4907C121.205 33.5287 121.195 33.5667 121.195 33.6047C121.195 33.6238 121.214 33.6523 121.252 33.6903C121.309 33.7093 121.376 33.7188 121.452 33.7188H113.183V28.8713H123.02C123.99 28.8713 124.807 29.0614 125.473 29.4416C126.138 29.8028 126.642 30.278 126.984 30.8673C127.326 31.4566 127.497 32.103 127.497 32.8063C127.497 33.3766 127.374 33.9659 127.126 34.5743C126.879 35.1636 126.499 35.7148 125.986 36.2281L118.772 43.5564C118.81 43.5184 118.829 43.4899 118.829 43.4709C118.829 43.4329 118.829 43.4044 118.829 43.3853C118.829 43.3473 118.81 43.3188 118.772 43.2998C118.753 43.2808 118.705 43.2713 118.629 43.2713H127.098Z" fill="white"/>
<path d="M105.434 28.8713H110.71V48.1188H105.434V28.8713Z" fill="white"/>
<path d="M93.9396 48.461C90.917 48.461 88.7024 47.6721 87.2956 46.0943C85.8889 44.4974 85.1855 42.2733 85.1855 39.4218V28.8713H90.4608V39.2792C90.4608 40.762 90.7459 41.836 91.3162 42.5014C91.9055 43.1477 92.78 43.4709 93.9396 43.4709C95.1182 43.4709 95.9927 43.1477 96.563 42.5014C97.1523 41.836 97.4469 40.762 97.4469 39.2792V28.8713H102.722V39.4218C102.722 42.2733 102.009 44.4974 100.584 46.0943C99.1578 47.6721 96.9432 48.461 93.9396 48.461Z" fill="white"/>
<path d="M75.9683 28.8713V43.2713H84.4658V48.1188H75.2555C73.6396 48.1188 72.4705 47.7196 71.7481 46.9212C71.0448 46.1228 70.6931 45.0487 70.6931 43.699V28.8713H75.9683Z" fill="white"/>
<path d="M218.564 18.9285L217.625 15.9081L216.686 18.9285H218.564ZM219.538 22.0453L219.081 20.5651H216.193L215.736 22.0453H213.75L216.662 13.6217H218.672L221.584 22.0453H219.538Z" fill="white"/>
<path d="M210.442 22.0453V13.6217H212.319V22.0453H210.442Z" fill="white"/>
<path d="M203.717 22.0453V13.6217H205.594V20.4087H209.072V22.0453H203.717Z" fill="white"/>
<path d="M199.554 22.0453V13.6217H201.431V22.0453H199.554ZM202.791 11.2871L201.371 12.8515H199.686L200.625 11.2871H202.791Z" fill="white"/>
<path d="M194.615 15.1379C194.398 15.1379 194.222 15.166 194.086 15.2222C193.957 15.2783 193.861 15.3585 193.797 15.4628C193.741 15.5671 193.713 15.6915 193.713 15.8359C193.713 15.9963 193.741 16.1287 193.797 16.233C193.861 16.3293 193.965 16.4175 194.11 16.4977C194.254 16.5699 194.443 16.6542 194.675 16.7504L195.542 17.0874C196.111 17.304 196.552 17.5286 196.865 17.7613C197.186 17.9939 197.411 18.2627 197.539 18.5675C197.668 18.8644 197.732 19.2294 197.732 19.6626C197.732 20.4649 197.491 21.0826 197.01 21.5158C196.536 21.949 195.794 22.1656 194.784 22.1656C193.877 22.1656 193.143 21.9651 192.581 21.5639C192.028 21.1548 191.695 20.4809 191.583 19.5423H193.436C193.524 19.9113 193.66 20.168 193.845 20.3124C194.029 20.4568 194.338 20.529 194.771 20.529C195.149 20.529 195.413 20.4689 195.566 20.3485C195.726 20.2202 195.806 20.0236 195.806 19.7589C195.806 19.5663 195.77 19.4139 195.698 19.3016C195.634 19.1813 195.522 19.077 195.361 18.9887C195.201 18.8924 194.976 18.7922 194.687 18.6879L193.905 18.3991C193.4 18.2065 192.99 18.002 192.678 17.7853C192.365 17.5687 192.136 17.312 191.992 17.0152C191.855 16.7103 191.787 16.3373 191.787 15.8961C191.787 15.4307 191.887 15.0176 192.088 14.6566C192.297 14.2956 192.609 14.0148 193.027 13.8142C193.452 13.6056 193.981 13.5013 194.615 13.5013C195.57 13.5013 196.288 13.738 196.769 14.2113C197.258 14.6847 197.519 15.3224 197.551 16.1247H195.698C195.666 15.7958 195.57 15.5511 195.409 15.3906C195.257 15.2222 194.992 15.1379 194.615 15.1379Z" fill="white"/>
<path d="M187.901 18.9285L186.963 15.9081L186.024 18.9285H187.901ZM188.876 22.0453L188.419 20.5651H185.531L185.073 22.0453H183.088L186 13.6217H188.01L190.922 22.0453H188.876Z" fill="white"/>
<path d="M178.905 15.2583H177.966V17.4725H178.905C179.346 17.4725 179.671 17.3842 179.88 17.2077C180.096 17.0312 180.205 16.7946 180.205 16.4977V16.245C180.205 16.0445 180.157 15.872 180.06 15.7276C179.964 15.5751 179.82 15.4588 179.627 15.3786C179.443 15.2984 179.202 15.2583 178.905 15.2583ZM177.966 19.109V22.0453H176.089V13.6217H179.049C179.691 13.6217 180.241 13.7219 180.698 13.9225C181.155 14.115 181.508 14.3998 181.757 14.7769C182.006 15.154 182.13 15.6153 182.13 16.1608V16.582C182.13 17.1114 182.002 17.5607 181.745 17.9297C181.496 18.2988 181.155 18.5836 180.722 18.7841L182.503 22.0453H180.373L178.917 19.109H177.966Z" fill="white"/>
<path d="M168.025 22.0453V13.6217H171.021C171.92 13.6217 172.622 13.8222 173.127 14.2234C173.64 14.6165 173.897 15.182 173.897 15.9201V16.2209C173.897 16.5178 173.833 16.7825 173.705 17.0152C173.584 17.2398 173.408 17.4323 173.175 17.5928C173.528 17.7693 173.797 18.0019 173.981 18.2907C174.166 18.5796 174.258 18.9245 174.258 19.3256V19.6265C174.258 20.148 174.134 20.5892 173.885 20.9502C173.644 21.3112 173.312 21.584 172.886 21.7685C172.461 21.953 171.972 22.0453 171.418 22.0453H168.025ZM170.877 15.2583H169.902V16.9791H170.877C171.246 16.9791 171.518 16.9069 171.695 16.7625C171.879 16.6181 171.972 16.4295 171.972 16.1969V16.0043C171.972 15.7717 171.879 15.5912 171.695 15.4628C171.518 15.3264 171.246 15.2583 170.877 15.2583ZM171.238 18.4953H169.902V20.4087H171.238C171.607 20.4087 171.879 20.3285 172.056 20.168C172.24 20.0076 172.333 19.799 172.333 19.5423V19.3497C172.333 19.085 172.24 18.8764 172.056 18.724C171.879 18.5715 171.607 18.4953 171.238 18.4953Z" fill="white"/>
<path d="M157.125 22.0453V13.6217H162.721V15.2583H159.003V16.8828H162.119V18.5194H159.003V20.4087H162.721V22.0453H157.125Z" fill="white"/>
<path d="M148.638 22.0453V13.6217H151.839C152.866 13.6217 153.676 13.8864 154.27 14.4159C154.863 14.9454 155.16 15.6955 155.16 16.6662V19.0128C155.16 19.6626 155.02 20.2121 154.739 20.6614C154.458 21.1107 154.069 21.4556 153.572 21.6963C153.082 21.9289 152.521 22.0453 151.887 22.0453H148.638ZM151.694 15.2583H150.515V20.4087H151.682C152.035 20.4087 152.324 20.3485 152.549 20.2282C152.781 20.1078 152.954 19.9354 153.066 19.7107C153.178 19.4861 153.235 19.2254 153.235 18.9285V16.7504C153.235 16.2932 153.106 15.9321 152.85 15.6674C152.601 15.3946 152.216 15.2583 151.694 15.2583Z" fill="white"/>
<path d="M139.774 22.1656C139.076 22.1656 138.466 22.0413 137.945 21.7926C137.432 21.5439 137.03 21.1789 136.742 20.6975C136.461 20.2081 136.32 19.6145 136.32 18.9165V16.7625C136.32 16.0645 136.461 15.4749 136.742 14.9935C137.03 14.5042 137.432 14.1351 137.945 13.8864C138.466 13.6297 139.076 13.5013 139.774 13.5013C140.48 13.5013 141.09 13.6297 141.603 13.8864C142.125 14.1351 142.526 14.5042 142.807 14.9935C143.095 15.4749 143.24 16.0645 143.24 16.7625V18.9165C143.24 19.6145 143.095 20.2081 142.807 20.6975C142.526 21.1789 142.125 21.5439 141.603 21.7926C141.09 22.0413 140.48 22.1656 139.774 22.1656ZM139.774 15.1379C139.261 15.1379 138.876 15.2944 138.619 15.6072C138.37 15.9121 138.246 16.3253 138.246 16.8467V18.8323C138.246 19.3457 138.37 19.7589 138.619 20.0718C138.876 20.3766 139.261 20.529 139.774 20.529C140.296 20.529 140.681 20.3766 140.929 20.0718C141.186 19.7589 141.314 19.3457 141.314 18.8323V16.8467C141.314 16.3253 141.186 15.9121 140.929 15.6072C140.681 15.2944 140.296 15.1379 139.774 15.1379Z" fill="white"/>
<path d="M132.482 22.0453V13.6217H134.36V22.0453H132.482Z" fill="white"/>
<path d="M127.445 15.2583H126.507V17.4725H127.445C127.887 17.4725 128.212 17.3842 128.42 17.2077C128.637 17.0312 128.745 16.7946 128.745 16.4977V16.245C128.745 16.0445 128.697 15.872 128.601 15.7276C128.504 15.5751 128.36 15.4588 128.167 15.3786C127.983 15.2984 127.742 15.2583 127.445 15.2583ZM126.507 19.109V22.0453H124.63V13.6217H127.59C128.232 13.6217 128.781 13.7219 129.238 13.9225C129.696 14.115 130.049 14.3998 130.297 14.7769C130.546 15.154 130.67 15.6153 130.67 16.1608V16.582C130.67 17.1114 130.542 17.5607 130.285 17.9297C130.037 18.2988 129.696 18.5836 129.263 18.7841L131.044 22.0453H128.914L127.457 19.109H126.507Z" fill="white"/>
<path d="M120.172 18.9285L119.233 15.9081L118.294 18.9285H120.172ZM121.146 22.0453L120.689 20.5651H117.801L117.344 22.0453H115.358L118.27 13.6217H120.28L123.192 22.0453H121.146ZM121.664 11.2871L120.244 12.8515H118.559L119.498 11.2871H121.664Z" fill="white"/>
<path d="M115.615 15.2583H113.293V22.0453H111.415V15.2583H109.081V13.6217H115.615V15.2583Z" fill="white"/>
<path d="M102.434 22.0453V13.6217H108.03V15.2583H104.311V16.8828H107.428V18.5194H104.311V20.4087H108.03V22.0453H102.434Z" fill="white"/>
<path d="M97.9125 22.0453L95.4696 16.4616V22.0453H93.6525V13.6217H95.8908L98.3337 19.2053V13.6217H100.151V22.0453H97.9125Z" fill="white"/>
<path d="M89.1946 18.9285L88.256 15.9081L87.3174 18.9285H89.1946ZM90.1694 22.0453L89.7121 20.5651H86.824L86.3667 22.0453H84.3811L87.2933 13.6217H89.3029L92.2151 22.0453H90.1694Z" fill="white"/>
<path d="M78.311 22.0453V13.6217H80.1882V20.4087H83.666V22.0453H78.311Z" fill="white"/>
<path d="M73.6895 19.109H72.5703V22.0453H70.6931V13.6217H73.6534C74.2952 13.6217 74.8447 13.7219 75.302 13.9225C75.7593 14.115 76.1123 14.3998 76.361 14.7769C76.6096 15.154 76.734 15.6153 76.734 16.1608V16.582C76.734 17.1195 76.6016 17.5767 76.3369 17.9538C76.0802 18.3309 75.7232 18.6197 75.2659 18.8202C74.8086 19.0128 74.2831 19.109 73.6895 19.109ZM73.509 15.2583H72.5703V17.4725H73.509C73.9502 17.4725 74.2751 17.3842 74.4837 17.2077C74.7003 17.0312 74.8086 16.7946 74.8086 16.4977V16.245C74.8086 16.0445 74.7605 15.872 74.6642 15.7276C74.5679 15.5751 74.4235 15.4588 74.231 15.3786C74.0465 15.2984 73.8058 15.2583 73.509 15.2583Z" fill="white"/>
<path d="M43.3663 30C43.3663 37.382 37.382 43.3663 30 43.3663C22.618 43.3663 16.6337 37.382 16.6337 30C16.6337 22.618 22.618 16.6337 30 16.6337C37.382 16.6337 43.3663 22.618 43.3663 30ZM18.5992 30C18.5992 36.2965 23.7035 41.4008 30 41.4008C36.2965 41.4008 41.4008 36.2965 41.4008 30C41.4008 23.7035 36.2965 18.5992 30 18.5992C23.7035 18.5992 18.5992 23.7035 18.5992 30Z" fill="white"/>
<circle cx="30" cy="30" r="9.80198" fill="white"/>
<path d="M25.5446 0L25.9971 0.0653675C28.6519 0.448842 31.3481 0.448842 34.0029 0.0653676L34.4554 0L33.1825 15.4455V15.4455C31.0821 15.0208 28.9179 15.0208 26.8175 15.4455V15.4455L25.5446 0Z" fill="white"/>
<path d="M60 25.5446L59.9346 25.9971C59.5512 28.6519 59.5512 31.3481 59.9346 34.0029L60 34.4554L44.5545 33.1825V33.1825C44.9792 31.0821 44.9792 28.9179 44.5545 26.8175V26.8175L60 25.5446Z" fill="white"/>
<path d="M0 25.5446L0.0653675 25.9971C0.448842 28.6519 0.448842 31.3481 0.0653679 34.0029L3.89507e-07 34.4554L15.4455 33.1825V33.1825C15.0208 31.0821 15.0208 28.9179 15.4455 26.8175V26.8175L0 25.5446Z" fill="white"/>
<path d="M25.5446 60L25.9971 59.9346C28.6519 59.5512 31.3481 59.5512 34.0029 59.9346L34.4554 60L33.1825 44.5545V44.5545C31.0821 44.9792 28.9179 44.9792 26.8175 44.5545V44.5545L25.5446 60Z" fill="white"/>
<path d="M41.1712 58.2148L41.5319 57.9337C43.6478 56.2851 45.9897 54.949 48.4856 53.9665L48.9111 53.799L40.1515 41.0141V41.0141C38.5376 42.4239 36.6578 43.4963 34.623 44.1682V44.1682L41.1712 58.2148Z" fill="white"/>
<path d="M18.8288 58.2148L18.4681 57.9337C16.3522 56.2851 14.0103 54.949 11.5144 53.9665L11.0889 53.799L19.8486 41.0141V41.0141C21.4624 42.4239 23.3422 43.4963 25.377 44.1682V44.1682L18.8288 58.2148Z" fill="white"/>
<path d="M41.1712 1.78218L41.5319 2.06321C43.6478 3.71188 45.9897 5.04794 48.4856 6.03044L48.9111 6.19792L40.1515 18.9828V18.9828C38.5376 17.5731 36.6578 16.5006 34.623 15.8287V15.8287L41.1712 1.78218Z" fill="white"/>
<path d="M18.8288 1.78218L18.4681 2.06321C16.3522 3.71188 14.0103 5.04794 11.5144 6.03044L11.0889 6.19792L19.8486 18.9828V18.9828C21.4624 17.5731 23.3422 16.5006 25.377 15.8287V15.8287L18.8288 1.78218Z" fill="white"/>
<path d="M53.6644 48.8288L53.8399 48.4066C54.8695 45.9297 56.2497 43.6136 57.9381 41.5293L58.2259 41.174L44.3059 34.3609V34.3609C43.5956 36.3826 42.4877 38.2417 41.0477 39.8286V39.8286L53.6644 48.8288Z" fill="white"/>
<path d="M6.33559 48.8288L6.16009 48.4066C5.1305 45.9297 3.75033 43.6136 2.06189 41.5293L1.77408 41.174L15.6941 34.3609V34.3609C16.4044 36.3826 17.5123 38.2417 18.9523 39.8286V39.8286L6.33559 48.8288Z" fill="white"/>
<path d="M53.6644 11.1682L53.8399 11.5904C54.8695 14.0673 56.2497 16.3834 57.9381 18.4677L58.2259 18.823L44.3059 25.6361V25.6361C43.5956 23.6143 42.4877 21.7552 41.0477 20.1683V20.1683L53.6644 11.1682Z" fill="white"/>
<path d="M6.33559 11.1682L6.16009 11.5904C5.1305 14.0673 3.75033 16.3834 2.06189 18.4677L1.77408 18.823L15.6941 25.6361V25.6361C16.4044 23.6143 17.5123 21.7552 18.9523 20.1683V20.1683L6.33559 11.1682Z" fill="white"/>
</svg>
